<svg xmlns="http://www.w3.org/2000/svg" width="192" height="192" viewBox="0 0 192 192" fill="none">
  <rect width="192" height="192" rx="32" fill="#2563EB"/>
  <path d="M96 40C64.9 40 40 64.9 40 96C40 127.1 64.9 152 96 152C127.1 152 152 127.1 152 96C152 64.9 127.1 40 96 40ZM96 56C104.8 56 112 63.2 112 72C112 80.8 104.8 88 96 88C87.2 88 80 80.8 80 72C80 63.2 87.2 56 96 56ZM96 136C80 136 66.4 127.2 60 114.4C60.4 105.2 78.4 100 96 100C113.6 100 131.6 105.2 132 114.4C125.6 127.2 112 136 96 136Z" fill="white"/>
  <path d="M96 104C113.6 104 128 99.6 128 94C128 88.4 113.6 84 96 84C78.4 84 64 88.4 64 94C64 99.6 78.4 104 96 104Z" fill="#60A5FA"/>
  <path d="M96 136C112 136 125.6 127.2 132 114.4C131.6 105.2 113.6 100 96 100C78.4 100 60.4 105.2 60 114.4C66.4 127.2 80 136 96 136Z" fill="#60A5FA"/>
</svg>