<svg xmlns="http://www.w3.org/2000/svg" width="512" height="512" viewBox="0 0 512 512" fill="none">
  <rect width="512" height="512" rx="64" fill="#2563EB"/>
  <path d="M256 96C172.8 96 106 162.8 106 246C106 329.2 172.8 396 256 396C339.2 396 406 329.2 406 246C406 162.8 339.2 96 256 96ZM256 136C279.2 136 298 154.8 298 178C298 201.2 279.2 220 256 220C232.8 220 214 201.2 214 178C214 154.8 232.8 136 256 136ZM256 356C216 356 180.8 336.8 160 306.8C161.2 276.4 216.8 260 256 260C295.2 260 350.8 276.4 352 306.8C331.2 336.8 296 356 256 356Z" fill="white"/>
  <path d="M256 264C300.8 264 336 252.8 336 238C336 223.2 300.8 212 256 212C211.2 212 176 223.2 176 238C176 252.8 211.2 264 256 264Z" fill="#60A5FA"/>
  <path d="M256 356C296 356 331.2 336.8 352 306.8C350.8 276.4 295.2 260 256 260C216.8 260 161.2 276.4 160 306.8C180.8 336.8 216 356 256 356Z" fill="#60A5FA"/>
</svg>